<svg xmlns="http://www.w3.org/2000/svg" width="24" height="24" viewBox="0 0 16 16" role="img" aria-label="Pixel Trump">
  <rect width="16" height="16" fill="none"/>
  <g fill="#1a0a00">
    <rect x="3" y="3" width="1" height="1"/><rect x="12" y="3" width="1" height="1"/>
    <rect x="2" y="4" width="1" height="5"/><rect x="13" y="4" width="1" height="5"/>
    <rect x="3" y="9" width="10" height="1"/><rect x="3" y="10" width="2" height="1"/>
    <rect x="11" y="10" width="2" height="1"/><rect x="2" y="11" width="1" height="4"/>
    <rect x="13" y="11" width="1" height="4"/><rect x="3" y="15" width="10" height="1"/>
  </g>
  <g fill="#e8c545">
    <rect x="3" y="0" width="10" height="1"/><rect x="2" y="1" width="12" height="1"/>
    <rect x="2" y="2" width="12" height="1"/><rect x="2" y="3" width="11" height="1"/>
    <rect x="3" y="4" width="2" height="1"/><rect x="11" y="4" width="2" height="1"/>
  </g>
  <g fill="#c8a030">
    <rect x="2" y="2" width="3" height="1"/><rect x="11" y="2" width="3" height="1"/>
  </g>
  <g fill="#e8784d"><rect x="3" y="4" width="10" height="5"/></g>
  <g fill="#f09060"><rect x="5" y="4" width="6" height="3"/></g>
  <g fill="#1a1a1a">
    <rect x="5" y="5" width="2" height="1"/><rect x="9" y="5" width="2" height="1"/>
  </g>
  <g fill="#f5fbff">
    <rect x="6" y="5" width="1" height="1"/><rect x="10" y="5" width="1" height="1"/>
  </g>
  <g fill="#c0503a"><rect x="6" y="7" width="4" height="1"/></g>
  <g fill="#1a0a00"><rect x="6" y="8" width="4" height="1"/></g>
  <g fill="#f5f5f5">
    <rect x="6" y="10" width="4" height="1"/><rect x="5" y="11" width="2" height="1"/>
    <rect x="9" y="11" width="2" height="1"/>
  </g>
  <g fill="#1a1a2e"><rect x="3" y="10" width="10" height="5"/></g>
  <g fill="#cc1111">
    <rect x="7" y="11" width="2" height="4"/><rect x="6" y="12" width="4" height="1"/>
    <rect x="7" y="14" width="3" height="1"/>
  </g>
  <g fill="#aa0000"><rect x="7" y="11" width="2" height="1"/></g>
</svg>